<?xml version="1.0" standalone="no"?>
<!DOCTYPE svg PUBLIC "-//W3C//DTD SVG 20010904//EN"
 "http://www.w3.org/TR/2001/REC-SVG-20010904/DTD/svg10.dtd">
<svg version="1.0" xmlns="http://www.w3.org/2000/svg"
 width="1569.000000pt" height="1880.000000pt" viewBox="0 0 1569.000000 1880.000000"
 preserveAspectRatio="xMidYMid meet">

<g transform="translate(0.000000,1880.000000) scale(0.100000,-0.100000)"
fill="#000000" stroke="none">
<path d="M7811 18483 c-20 -8 -604 -360 -2526 -1520 -4121 -2487 -4874 -2944
-4943 -2999 l-27 -22 -8 -1659 c-11 -2433 0 -7382 17 -7408 18 -27 492 -318
2456 -1505 3041 -1838 5043 -3040 5066 -3040 23 0 1576 934 5639 3390 1778
1075 1869 1131 1882 1148 19 23 19 9061 1 9084 -7 9 -107 74 -223 144 -1258
763 -5313 3211 -6765 4084 -278 168 -516 305 -530 307 -14 1 -31 -1 -39 -4z
m3729 -2406 l3665 -2213 0 -4454 0 -4453 -3680 -2223 -3680 -2222 -37 21 c-21
12 -1678 1012 -3682 2222 l-3645 2200 0 4455 0 4455 3681 2222 c2805 1693
3685 2220 3697 2213 9 -5 1665 -1005 3681 -2223z"/>
<path d="M1738 13234 c-189 -34 -362 -144 -468 -299 -115 -168 -179 -421 -167
-670 17 -372 172 -634 452 -766 116 -54 215 -74 365 -72 146 2 244 23 360 80
89 43 218 166 267 254 37 65 95 226 85 233 -9 5 -327 106 -335 106 -4 0 -11
-19 -18 -42 -28 -105 -101 -218 -173 -267 -128 -88 -348 -77 -471 24 -55 44
-116 162 -142 272 -26 110 -26 419 0 511 44 156 112 249 225 304 64 32 71 33
187 33 112 0 124 -2 175 -28 30 -16 74 -46 96 -69 41 -39 94 -131 94 -162 0
-8 4 -17 9 -21 12 -7 351 74 351 84 0 19 -42 127 -70 179 -87 163 -259 280
-470 318 -95 17 -252 16 -352 -2z"/>
<path d="M4320 12335 l0 -885 165 0 165 0 0 885 0 885 -165 0 -165 0 0 -885z"/>
<path d="M5000 12335 l0 -885 170 0 170 0 0 885 0 885 -170 0 -170 0 0 -885z"/>
<path d="M5690 12336 l0 -886 178 2 177 3 3 331 2 331 258 6 c282 6 351 16
459 67 125 58 232 197 262 338 16 77 14 247 -4 317 -33 124 -123 242 -235 308
-99 57 -123 60 -632 65 l-468 4 0 -886z m781 574 c141 -26 228 -157 199 -297
-31 -147 -139 -193 -455 -193 l-165 0 0 250 0 250 184 0 c101 0 208 -5 237
-10z"/>
<path d="M7332 12338 l3 -883 167 -3 167 -2 3 402 c4 387 5 406 27 471 41 124
115 177 248 177 76 0 120 -16 156 -59 48 -58 50 -77 54 -549 l5 -442 166 2
167 3 -1 470 c-1 450 -2 473 -23 550 -32 118 -81 183 -173 231 -141 73 -333
72 -469 -2 -26 -15 -71 -48 -100 -75 -29 -27 -54 -49 -56 -49 -2 0 -3 144 -3
320 l0 320 -170 0 -170 0 2 -882z"/>
<path d="M13120 13215 c0 -3 120 -191 267 -417 146 -225 266 -415 266 -422 0
-6 -133 -215 -296 -463 -164 -249 -297 -455 -297 -458 0 -3 96 -5 213 -5 l212
0 195 305 c147 229 198 301 206 292 6 -7 95 -144 199 -304 l187 -293 215 0
c169 0 213 3 207 13 -4 6 -138 207 -297 445 -158 239 -291 440 -293 447 -3 7
117 202 265 434 149 232 271 424 271 427 0 2 -93 3 -207 2 l-206 -3 -168 -275
c-92 -151 -170 -275 -174 -275 -3 0 -84 124 -179 275 l-172 275 -207 3 c-114
1 -207 0 -207 -3z"/>
<path d="M3276 12744 c-211 -51 -370 -241 -417 -497 -18 -101 -13 -262 11
-363 57 -241 191 -384 410 -440 89 -23 274 -23 359 -1 154 41 283 145 349 280
17 36 32 70 32 75 0 7 -331 66 -334 60 -1 -2 -14 -29 -30 -61 -40 -81 -93
-111 -191 -111 -58 0 -79 5 -122 28 -65 36 -116 107 -138 191 -27 106 -74 95
410 95 l425 0 0 43 c0 23 -5 81 -10 127 -49 394 -254 593 -611 589 -46 0 -110
-7 -143 -15z m279 -268 c89 -41 145 -133 145 -238 l0 -38 -251 0 -252 0 6 56
c11 106 83 210 162 233 58 17 137 12 190 -13z"/>
<path d="M9176 12744 c-189 -46 -343 -211 -403 -434 -25 -93 -25 -358 0 -450
62 -224 198 -363 407 -416 89 -23 274 -23 359 -1 153 41 283 144 349 278 17
37 32 71 32 76 0 7 -331 68 -334 61 -1 -2 -15 -30 -32 -63 -41 -81 -90 -109
-189 -109 -58 0 -79 5 -122 28 -77 42 -132 130 -148 239 l-7 47 426 0 426 0 0
43 c0 23 -5 81 -10 127 -48 392 -254 592 -603 589 -51 0 -118 -7 -151 -15z
m279 -268 c89 -41 145 -133 145 -238 l0 -38 -251 0 -252 0 6 56 c11 107 76
200 159 231 56 20 137 15 193 -11z"/>
<path d="M10855 12756 c-5 -2 -34 -12 -64 -21 -69 -21 -143 -68 -203 -130
l-48 -48 0 86 0 87 -165 0 -165 0 2 -637 3 -638 168 -3 167 -2 0 330 c0 382
10 501 46 577 31 64 90 116 149 133 63 18 168 9 202 -16 85 -64 93 -112 93
-616 l0 -408 171 0 170 0 -4 498 c-4 540 -6 558 -60 639 -73 109 -186 164
-347 169 -58 2 -109 2 -115 0z"/>
<path d="M12145 12745 c-236 -52 -415 -225 -475 -461 -25 -95 -27 -260 -5
-366 24 -116 85 -229 169 -313 80 -79 155 -121 281 -156 102 -28 268 -31 365
-6 230 61 400 234 466 478 26 96 24 262 -5 364 -52 184 -165 326 -322 404 -46
23 -115 48 -154 56 -86 18 -239 18 -320 0z m267 -281 c146 -49 229 -236 200
-452 -15 -109 -48 -177 -114 -237 -115 -104 -297 -96 -405 17 -94 98 -125 317
-69 486 23 67 96 148 161 178 60 29 158 32 227 8z"/>
<path d="M7430 10089 c-124 -22 -260 -109 -336 -214 -88 -124 -121 -279 -90
-425 9 -41 12 -78 8 -82 -7 -7 -564 -310 -617 -335 -29 -14 -33 -13 -98 31
-119 80 -264 110 -397 82 -259 -54 -433 -265 -434 -526 0 -102 30 -207 81
-283 l34 -50 -49 -51 c-27 -28 -132 -139 -233 -246 -100 -107 -190 -194 -198
-194 -9 1 -47 9 -86 18 -87 19 -121 20 -210 1 -112 -23 -202 -74 -279 -155
-107 -113 -149 -221 -149 -375 2 -468 576 -702 908 -370 212 212 208 558 -8
763 l-54 51 204 218 c113 120 213 227 224 237 17 18 20 18 36 4 30 -26 119
-67 180 -83 112 -29 268 -14 366 37 38 19 40 19 57 1 105 -113 356 -380 398
-424 l54 -56 -37 -48 c-76 -100 -106 -190 -106 -320 0 -407 425 -663 785 -472
118 62 220 191 260 326 18 62 21 203 5 271 -17 73 -66 165 -122 226 -163 180
-412 230 -625 127 -31 -15 -60 -27 -65 -27 -4 -1 -110 109 -236 243 l-229 245
43 55 c81 105 115 203 115 331 -1 93 -12 146 -52 233 -17 37 -29 69 -27 71 2
1 144 78 315 170 l311 167 74 -73 c110 -109 228 -158 379 -158 146 0 259 48
366 154 39 39 77 81 85 94 l14 23 365 -192 c201 -105 366 -192 368 -194 1 -1
-9 -22 -22 -46 -55 -99 -74 -254 -47 -372 21 -88 72 -178 141 -247 172 -172
404 -208 624 -99 l80 40 47 -48 c26 -26 133 -140 237 -252 l191 -203 -34 -52
c-50 -75 -76 -157 -82 -261 -9 -145 36 -276 130 -380 l44 -50 -182 -238 c-100
-130 -185 -240 -188 -244 -4 -3 -28 5 -54 20 -158 85 -366 81 -523 -11 -157
-91 -260 -271 -260 -454 0 -154 51 -279 155 -383 286 -286 768 -161 887 228
17 57 20 87 16 175 -6 121 -30 196 -94 285 -29 39 -34 54 -26 67 12 20 340
450 357 468 10 12 25 9 84 -12 140 -50 279 -44 411 20 40 19 73 34 74 34 5 0
491 -522 494 -530 2 -5 -8 -24 -22 -42 -47 -62 -86 -161 -98 -249 -35 -266
139 -517 405 -585 81 -21 220 -14 300 14 199 71 340 255 354 464 11 156 -43
303 -150 411 -173 175 -432 211 -646 91 l-46 -25 -40 43 c-21 24 -132 141
-245 261 -113 121 -207 223 -208 228 -2 5 8 23 23 40 86 103 127 271 101 416
-63 359 -453 549 -775 378 -36 -19 -69 -35 -72 -35 -4 0 -114 112 -244 250
l-236 250 24 32 c62 83 97 194 97 310 0 294 -232 529 -525 531 -131 1 -228
-31 -328 -107 l-47 -36 -385 203 c-294 154 -384 206 -379 217 3 8 8 50 11 92
18 243 -128 465 -356 544 -78 27 -194 37 -271 23z m-1288 -1161 c69 -32 129
-92 165 -166 24 -48 28 -70 28 -137 -1 -66 -5 -90 -28 -140 -71 -153 -235
-233 -393 -190 -231 62 -328 326 -192 523 37 53 108 107 168 127 70 23 182 15
252 -17z m3179 4 c74 -36 125 -87 161 -160 30 -60 33 -76 33 -152 0 -66 -5
-96 -22 -132 -30 -66 -105 -143 -172 -175 -48 -24 -69 -28 -141 -28 -71 0 -94
4 -141 26 -119 56 -190 161 -197 294 -6 110 21 179 97 256 77 77 138 100 251
96 63 -2 97 -9 131 -25z m1224 -1281 c118 -58 178 -154 183 -292 4 -94 -10
-142 -64 -221 -59 -85 -202 -147 -310 -133 -113 14 -230 100 -277 203 -31 67
-31 207 0 274 42 92 140 174 237 199 64 17 162 4 231 -30z m-5511 -41 c72 -27
135 -85 177 -162 32 -58 34 -69 34 -153 0 -78 -4 -98 -27 -146 -35 -70 -97
-132 -168 -167 -75 -37 -199 -39 -274 -4 -76 34 -129 84 -166 154 -46 86 -53
193 -19 283 30 79 112 163 189 193 74 28 180 29 254 2z m2220 -1 c72 -27 145
-93 181 -166 27 -51 30 -68 30 -148 0 -77 -4 -98 -27 -147 -32 -70 -96 -133
-168 -167 -46 -22 -69 -26 -140 -26 -71 0 -94 4 -141 26 -69 33 -129 91 -166
161 -25 47 -28 64 -28 148 0 84 3 102 28 152 34 70 110 140 180 167 71 27 179
28 251 0z m2243 -1284 c67 -30 138 -96 171 -160 37 -73 43 -197 11 -280 -27
-71 -99 -149 -174 -185 -42 -21 -65 -25 -145 -25 -89 0 -99 2 -158 34 -115 62
-172 154 -180 286 -3 65 0 91 17 136 69 183 281 272 458 194z m2229 4 c74 -28
137 -88 176 -167 29 -59 33 -76 33 -152 0 -71 -4 -94 -26 -140 -33 -70 -99
-136 -169 -169 -46 -22 -69 -26 -145 -26 -78 0 -97 4 -146 28 -144 70 -223
237 -185 389 53 205 260 312 462 237z"/>
<path d="M5798 6712 l-198 -97 0 -1047 0 -1048 -30 0 c-30 0 -30 -1 -30 -55 0
-54 0 -55 30 -55 l30 0 0 -70 0 -70 410 0 410 0 0 70 0 70 30 0 c30 0 30 1 30
55 0 54 0 55 -30 55 l-30 0 0 1048 0 1047 -203 98 c-111 53 -206 97 -212 96
-5 0 -99 -44 -207 -97z"/>
<path d="M9030 3478 l0 -1203 196 -99 195 -100 200 99 199 100 0 1067 c0 943
2 1068 15 1068 12 0 15 13 15 55 0 42 -3 55 -15 55 -12 0 -15 16 -15 80 l0 80
-395 0 -395 0 0 -1202z"/>
<path d="M5170 4465 c0 -54 0 -55 30 -55 30 0 30 1 30 55 0 54 0 55 -30 55
-30 0 -30 -1 -30 -55z"/>
<path d="M5290 4465 c0 -54 0 -55 30 -55 30 0 30 1 30 55 0 54 0 55 -30 55
-30 0 -30 -1 -30 -55z"/>
<path d="M5420 4465 c0 -54 0 -55 30 -55 30 0 30 1 30 55 0 54 0 55 -30 55
-30 0 -30 -1 -30 -55z"/>
<path d="M6540 4465 c0 -54 0 -55 30 -55 30 0 30 1 30 55 0 54 0 55 -30 55
-30 0 -30 -1 -30 -55z"/>
<path d="M6670 4465 c0 -54 0 -55 30 -55 30 0 30 1 30 55 0 54 0 55 -30 55
-30 0 -30 -1 -30 -55z"/>
<path d="M7540 4465 c0 -54 0 -55 30 -55 30 0 30 1 30 55 0 54 0 55 -30 55
-30 0 -30 -1 -30 -55z"/>
<path d="M7670 4465 c0 -54 0 -55 30 -55 30 0 30 1 30 55 0 54 0 55 -30 55
-30 0 -30 -1 -30 -55z"/>
<path d="M7790 4465 c0 -54 0 -55 30 -55 30 0 30 1 30 55 0 54 0 55 -30 55
-30 0 -30 -1 -30 -55z"/>
<path d="M7923 4470 c0 -30 2 -43 4 -27 2 15 2 39 0 55 -2 15 -4 2 -4 -28z"/>
<path d="M8702 4468 c4 -74 28 -77 28 -4 0 44 -3 56 -16 56 -12 0 -14 -10 -12
-52z"/>
<path d="M8790 4465 c0 -54 0 -55 30 -55 30 0 30 1 30 55 0 54 0 55 -30 55
-30 0 -30 -1 -30 -55z"/>
<path d="M8920 4465 c0 -54 0 -55 30 -55 30 0 30 1 30 55 0 54 0 55 -30 55
-30 0 -30 -1 -30 -55z"/>
<path d="M9920 4465 c0 -54 0 -55 30 -55 30 0 30 1 30 55 0 54 0 55 -30 55
-30 0 -30 -1 -30 -55z"/>
<path d="M10040 4465 c0 -54 0 -55 30 -55 30 0 30 1 30 55 0 54 0 55 -30 55
-30 0 -30 -1 -30 -55z"/>
<path d="M10170 4465 c0 -54 0 -55 30 -55 30 0 30 1 30 55 0 54 0 55 -30 55
-30 0 -30 -1 -30 -55z"/>
<path d="M10290 4465 c0 -54 0 -55 30 -55 30 0 30 1 30 55 0 54 0 55 -30 55
-30 0 -30 -1 -30 -55z"/>
</g>
</svg>
